<svg width="360" height="365" viewBox="0 0 360 365" fill="none" xmlns="http://www.w3.org/2000/svg">
<path fill-rule="evenodd" clip-rule="evenodd" d="M180 365C279.411 365 360 284.411 360 185C360 85.5887 279.411 5 180 5C80.5887 5 0 85.5887 0 185C0 284.411 80.5887 365 180 365Z" fill="#F5F5F8"/>
<mask id="mask0" mask-type="alpha" maskUnits="userSpaceOnUse" x="0" y="5" width="360" height="360">
<path fill-rule="evenodd" clip-rule="evenodd" d="M180 365C279.411 365 360 284.411 360 185C360 85.5887 279.411 5 180 5C80.5887 5 0 85.5887 0 185C0 284.411 80.5887 365 180 365Z" fill="white"/>
</mask>
<g mask="url(#mask0)">
<path fill-rule="evenodd" clip-rule="evenodd" d="M310.964 323.235C300.352 307.884 284.706 296.726 266.736 291.692L224.999 280V250.001C242.643 236.747 254.23 215.89 254.942 192.297C257.408 193.384 260.13 194 263 194C274.045 194 283 185.046 283 174C283 162.954 274.045 154 263 154C260.153 154 257.451 154.603 255 155.675V150C255 108.578 221.421 75.0003 180 75.0003H179.999C138.578 75.0003 105 108.578 105 150V155.675C102.548 154.603 99.8465 154 97.0005 154C85.9545 154 77.0005 162.954 77.0005 174C77.0005 185.046 85.9545 194 97.0005 194C99.8695 194 102.591 193.385 105.058 192.297C105.769 215.89 117.356 236.747 134.999 250.001V280L93.2635 291.692C75.2935 296.726 59.6485 307.884 49.0365 323.235L20.0005 365.24V395H340V365.24L310.964 323.235Z" fill="#FFCF83"/>
<path fill-rule="evenodd" clip-rule="evenodd" d="M180 265C170.752 265 161.9 263.316 153.72 260.255C165.354 267.687 179.17 272 194 272C205.06 272 215.549 269.587 225 265.29V250.001C212.465 259.417 196.885 265 180 265Z" fill="#F7A74F"/>
<path d="M107.609 176.919C107.864 175.99 108.001 175.011 108.001 174.001C108.001 167.926 103.076 163.001 97.0012 163.001C95.4822 163.001 94.0352 163.309 92.7192 163.865" stroke="#00004D" stroke-width="2" stroke-linecap="round" stroke-linejoin="round"/>
<path d="M252.392 176.919C252.137 175.99 252.001 175.011 252.001 174.001C252.001 167.926 256.926 163.001 263.001 163.001C264.519 163.001 265.966 163.309 267.283 163.865" stroke="#00004D" stroke-width="2" stroke-linecap="round" stroke-linejoin="round"/>
<path fill-rule="evenodd" clip-rule="evenodd" d="M200 219.009C200 230.055 191.046 239.009 180 239.009C168.954 239.009 160 230.055 160 219.009H200Z" fill="white"/>
<path fill-rule="evenodd" clip-rule="evenodd" d="M221 177C221 181.418 217.418 185 213 185C208.582 185 205 181.418 205 177C205 172.582 208.582 169 213 169C217.418 169 221 172.582 221 177" fill="#00004D"/>
<path fill-rule="evenodd" clip-rule="evenodd" d="M155 177C155 181.418 151.418 185 147 185C142.582 185 139 181.418 139 177C139 172.582 142.582 169 147 169C151.418 169 155 172.582 155 177" fill="#00004D"/>
<path d="M180 169L190 203L176 205" stroke="#00004D" stroke-width="2" stroke-linecap="round" stroke-linejoin="round"/>
<path fill-rule="evenodd" clip-rule="evenodd" d="M260 154.249V150C260 134.654 255.671 120.322 248.18 108.145C241.237 96.8599 231.567 87.4439 220.095 80.7839C208.304 73.9379 194.615 69.9999 180 69.9999C165.384 69.9999 151.696 73.9379 139.905 80.7839C128.433 87.4439 118.763 96.8599 111.82 108.145C104.329 120.322 100 134.654 100 150V154.249C104.172 154.879 107.919 156.784 110.828 159.572C120.042 150.324 127.462 139.29 132.51 127.023C146.638 134.662 162.812 139 180 139C197.188 139 213.362 134.662 227.49 127.023C232.537 139.29 239.959 150.324 249.172 159.572C252.081 156.784 255.828 154.879 260 154.249" fill="#00004D"/>
<path fill-rule="evenodd" clip-rule="evenodd" d="M340 365.24L310.963 323.235C300.352 307.885 284.707 296.726 266.736 291.692L225 280C225 304.853 204.853 325 180 325V325C155.147 325 135 304.853 135 280L93.263 291.692C75.293 296.726 59.648 307.885 49.036 323.235L20 365.24V395H340V365.24Z" fill="#80C43B"/>
</g>
<path fill-rule="evenodd" clip-rule="evenodd" d="M197.857 239.03L190.04 243.567C183.832 247.171 176.168 247.171 169.959 243.567L162.142 239.03C157.996 236.623 156.141 231.612 157.721 227.086L159.064 223.24C159.624 221.634 161.139 220.557 162.84 220.557H197.159C198.86 220.557 200.375 221.634 200.935 223.24L202.278 227.086C203.858 231.612 202.003 236.623 197.857 239.03M248.221 189L243.046 205.887C240.223 215.1 233.147 222.396 224.025 225.5L214.403 228.773L210.555 221.186C207.147 214.467 200.253 210.233 192.718 210.233H180H167.281C159.747 210.233 152.852 214.467 149.444 221.186L145.596 228.773L135.974 225.5C126.852 222.396 119.776 215.1 116.953 205.887L111.778 189C109.896 191.068 107.598 192.747 105 193.883V207.528C105 231.259 118.985 252.759 140.678 262.379L163.785 272.624C174.11 277.202 185.889 277.202 196.213 272.624L219.32 262.378C241.013 252.759 255 231.259 255 207.528V193.883C252.402 192.747 250.103 191.068 248.221 189" fill="#00004D"/>
<path fill-rule="evenodd" clip-rule="evenodd" d="M260 139.682V135.705C260 123.544 256.898 112.062 251.4 101.91C253.881 99.4736 256.209 96.8699 258.352 94.0931L261.553 89.9442C265.904 84.3073 262.398 76.3559 255.066 75.2301L190.988 65.39C143.503 58.0985 100.359 92.3925 100.359 137.427V139.733C105.782 140.594 110.463 143.481 113.465 147.552L122.513 113.914L178.672 123.828C199.449 127.495 220.49 123.271 237.535 112.756L246.805 147.216C249.881 143.237 254.58 140.446 260 139.682" fill="#00004D"/>
</svg>
