<svg width="360" height="365" viewBox="0 0 360 365" fill="none" xmlns="http://www.w3.org/2000/svg">
<path fill-rule="evenodd" clip-rule="evenodd" d="M180 365C279.411 365 360 284.411 360 185C360 85.5887 279.411 5 180 5C80.5887 5 0 85.5887 0 185C0 284.411 80.5887 365 180 365Z" fill="#F5F5F8"/>
<mask id="mask0" mask-type="alpha" maskUnits="userSpaceOnUse" x="0" y="5" width="360" height="360">
<path fill-rule="evenodd" clip-rule="evenodd" d="M180 365C279.411 365 360 284.411 360 185C360 85.5887 279.411 5 180 5C80.5887 5 0 85.5887 0 185C0 284.411 80.5887 365 180 365Z" fill="white"/>
</mask>
<g mask="url(#mask0)">
<path fill-rule="evenodd" clip-rule="evenodd" d="M310.964 323.235C300.352 307.884 284.706 296.726 266.736 291.692L224.999 280V250.001C242.643 236.747 254.23 215.89 254.942 192.297C257.408 193.384 260.13 194 263 194C274.045 194 283 185.046 283 174C283 162.954 274.045 154 263 154C260.153 154 257.451 154.603 255 155.675V150C255 108.578 221.421 75.0003 180 75.0003H179.999C138.578 75.0003 105 108.578 105 150V155.675C102.548 154.603 99.8465 154 97.0005 154C85.9545 154 77.0005 162.954 77.0005 174C77.0005 185.046 85.9545 194 97.0005 194C99.8695 194 102.591 193.385 105.058 192.297C105.769 215.89 117.356 236.747 134.999 250.001V280L93.2635 291.692C75.2935 296.726 59.6485 307.884 49.0365 323.235L20.0005 365.24V395H340V365.24L310.964 323.235Z" fill="#FFCF83"/>
<path fill-rule="evenodd" clip-rule="evenodd" d="M179.999 265C170.751 265 161.899 263.316 153.719 260.255C165.353 267.687 179.169 272 193.999 272C205.059 272 215.548 269.587 224.999 265.29V250.001C212.464 259.417 196.884 265 179.999 265Z" fill="#F7A74F"/>
<path d="M107.609 176.919C107.864 175.99 108.001 175.011 108.001 174.001C108.001 167.926 103.076 163.001 97.001 163.001C95.482 163.001 94.035 163.309 92.719 163.865" stroke="#00004D" stroke-width="2" stroke-linecap="round" stroke-linejoin="round"/>
<path d="M252.392 176.919C252.137 175.99 252.001 175.011 252.001 174.001C252.001 167.926 256.926 163.001 263.001 163.001C264.519 163.001 265.966 163.309 267.283 163.865" stroke="#00004D" stroke-width="2" stroke-linecap="round" stroke-linejoin="round"/>
<path fill-rule="evenodd" clip-rule="evenodd" d="M221 177C221 181.418 217.418 185 213 185C208.582 185 205 181.418 205 177C205 172.582 208.582 169 213 169C217.418 169 221 172.582 221 177Z" fill="#00004D"/>
<path fill-rule="evenodd" clip-rule="evenodd" d="M155 177C155 181.418 151.418 185 147 185C142.582 185 139 181.418 139 177C139 172.582 142.582 169 147 169C151.418 169 155 172.582 155 177Z" fill="#00004D"/>
<path d="M180 169L190 203L176 205" stroke="#00004D" stroke-width="2" stroke-linecap="round" stroke-linejoin="round"/>
<path fill-rule="evenodd" clip-rule="evenodd" d="M260 154.249V150C260 134.654 255.671 120.322 248.18 108.145C241.237 96.8599 231.567 87.4439 220.095 80.7839C208.304 73.9379 194.615 69.9999 180 69.9999C165.384 69.9999 151.696 73.9379 139.905 80.7839C128.433 87.4439 118.763 96.8599 111.82 108.145C104.329 120.322 100 134.654 100 150V154.249C104.172 154.879 107.919 156.784 110.828 159.572C120.042 150.324 127.462 139.29 132.51 127.023C146.638 134.662 162.812 139 180 139C197.188 139 213.362 134.662 227.49 127.023C232.537 139.29 239.959 150.324 249.172 159.572C252.081 156.784 255.828 154.879 260 154.249Z" fill="#00004D"/>
<path fill-rule="evenodd" clip-rule="evenodd" d="M340 365.24L310.963 323.235C300.352 307.885 284.707 296.726 266.736 291.692L225 280C225 304.853 204.853 325 180 325C155.147 325 135 304.853 135 280L93.263 291.692C75.293 296.726 59.648 307.885 49.036 323.235L20 365.24V395H340V365.24Z" fill="#000066"/>
</g>
<path fill-rule="evenodd" clip-rule="evenodd" d="M190 231.499C190 238.127 185.522 243.499 180 243.499C174.478 243.499 170 238.127 170 231.499C170 224.872 174.478 219.499 180 219.499C185.522 219.499 190 224.872 190 231.499Z" fill="#00004D"/>
<path fill-rule="evenodd" clip-rule="evenodd" d="M263 139.449C265.121 139.449 267.161 139.763 269.078 140.335C269.917 138.805 270.395 137.071 270.395 135.231C270.395 131.055 267.952 127.418 264.336 125.483C269.679 122.561 273.278 117.151 273.278 110.942C273.278 102.498 266.631 95.5232 257.972 94.3047C259.347 92.008 260.139 89.3631 260.139 86.5433C260.139 77.7561 252.527 70.633 243.139 70.633C239.641 70.633 236.392 71.6241 233.689 73.319C233.691 73.2067 233.698 73.0963 233.698 72.9831C233.698 61.6119 223.848 52.3933 211.698 52.3933C206.43 52.3933 201.596 54.1294 197.807 57.0204C194.498 50.9558 187.775 46.7948 180 46.7948C172.225 46.7948 165.502 50.9558 162.193 57.0204C158.404 54.1294 153.57 52.3933 148.302 52.3933C136.152 52.3933 126.302 61.6119 126.302 72.9831C126.302 73.0963 126.309 73.2067 126.311 73.319C123.608 71.6241 120.359 70.633 116.861 70.633C107.473 70.633 99.8609 77.7561 99.8609 86.5433C99.8609 89.3631 100.653 92.008 102.028 94.3047C93.3689 95.5232 86.7219 102.498 86.7219 110.942C86.7219 117.151 90.3209 122.561 95.6639 125.483C92.0479 127.418 89.6049 131.055 89.6049 135.231C89.6049 137.071 90.0879 138.802 90.9249 140.334C92.8419 139.763 94.8809 139.449 96.9999 139.449C103.832 139.449 109.855 142.66 113.464 147.551L119.899 123.612C122.136 115.293 130.129 109.462 139.295 109.462H220.705C229.871 109.462 237.864 115.293 240.101 123.612L246.537 147.55C250.145 142.66 256.169 139.449 263 139.449" fill="#00004D"/>
</svg>
