<svg width="360" height="360" viewBox="0 0 360 360" fill="none" xmlns="http://www.w3.org/2000/svg">
<path fill-rule="evenodd" clip-rule="evenodd" d="M180 360C279.411 360 360 279.411 360 180C360 80.5887 279.411 0 180 0C80.5887 0 0 80.5887 0 180C0 279.411 80.5887 360 180 360Z" fill="#F5F5F8"/>
<mask id="mask0" mask-type="alpha" maskUnits="userSpaceOnUse" x="0" y="0" width="360" height="360">
<path fill-rule="evenodd" clip-rule="evenodd" d="M180 360C279.411 360 360 279.411 360 180C360 80.5887 279.411 0 180 0C80.5887 0 0 80.5887 0 180C0 279.411 80.5887 360 180 360Z" fill="white"/>
</mask>
<g mask="url(#mask0)">
<path fill-rule="evenodd" clip-rule="evenodd" d="M310.964 318.235C300.352 302.884 284.706 291.726 266.736 286.692L224.999 275V245.001C242.643 231.747 254.23 210.89 254.942 187.297C257.408 188.384 260.13 189 263 189C274.045 189 283 180.046 283 169C283 157.954 274.045 149 263 149C260.153 149 257.451 149.603 255 150.675V145C255 103.578 221.421 70.0003 180 70.0003H179.999C138.578 70.0003 105 103.578 105 145V150.675C102.548 149.603 99.8465 149 97.0005 149C85.9545 149 77.0005 157.954 77.0005 169C77.0005 180.046 85.9545 189 97.0005 189C99.8695 189 102.591 188.385 105.058 187.297C105.769 210.89 117.356 231.747 134.999 245.001V275L93.2635 286.692C75.2935 291.726 59.6485 302.884 49.0365 318.235L20.0005 360.24V390H340V360.24L310.964 318.235Z" fill="#FFCF83"/>
<path fill-rule="evenodd" clip-rule="evenodd" d="M179.999 260C170.751 260 161.899 258.316 153.719 255.255C165.353 262.687 179.169 267 193.999 267C205.059 267 215.548 264.587 224.999 260.29V245.001C212.464 254.417 196.884 260 179.999 260Z" fill="#F7A74F"/>
<path d="M107.609 171.919C107.864 170.99 108.001 170.011 108.001 169.001C108.001 162.926 103.076 158.001 97.001 158.001C95.482 158.001 94.035 158.309 92.719 158.865" stroke="#00004D" stroke-width="2" stroke-linecap="round" stroke-linejoin="round"/>
<path d="M252.392 171.919C252.137 170.99 252.001 170.011 252.001 169.001C252.001 162.926 256.926 158.001 263.001 158.001C264.519 158.001 265.966 158.309 267.283 158.865" stroke="#00004D" stroke-width="2" stroke-linecap="round" stroke-linejoin="round"/>
<path fill-rule="evenodd" clip-rule="evenodd" d="M200 214.009C200 225.055 191.046 234.009 180 234.009C168.954 234.009 160 225.055 160 214.009H200Z" fill="white"/>
<path d="M180 164L190 198L176 200" stroke="#00004D" stroke-width="2" stroke-linecap="round" stroke-linejoin="round"/>
<path fill-rule="evenodd" clip-rule="evenodd" d="M260 149.249V145C260 129.654 255.671 115.322 248.18 103.145C241.237 91.8599 231.567 82.4439 220.095 75.7839C208.304 68.9379 194.615 64.9999 180 64.9999C165.384 64.9999 151.696 68.9379 139.905 75.7839C128.433 82.4439 118.763 91.8599 111.82 103.145C104.329 115.322 100 129.654 100 145V149.249C104.172 149.879 107.919 151.784 110.828 154.572C120.042 145.324 127.462 134.29 132.51 122.023C146.638 129.662 162.812 134 180 134C197.188 134 213.362 129.662 227.49 122.023C232.537 134.29 239.959 145.324 249.172 154.572C252.081 151.784 255.828 149.879 260 149.249Z" fill="#00004D"/>
<path fill-rule="evenodd" clip-rule="evenodd" d="M340 360.24L310.963 318.235C300.352 302.885 284.707 291.726 266.736 286.692L225 275C225 299.853 204.853 320 180 320C155.147 320 135 299.853 135 275L93.263 286.692C75.293 291.726 59.648 302.885 49.036 318.235L20 360.24V390H340V360.24Z" fill="#FD9DAA"/>
</g>
<path fill-rule="evenodd" clip-rule="evenodd" d="M200 214.499C200 225.545 191.046 234.499 180 234.499C168.954 234.499 160 225.545 160 214.499H200Z" fill="#AE1328"/>
<path fill-rule="evenodd" clip-rule="evenodd" d="M191.193 231.077C188.307 228.249 184.359 226.5 180 226.5C175.64 226.5 171.692 228.249 168.806 231.077C172.001 233.238 175.853 234.5 180 234.5C184.146 234.5 187.999 233.238 191.193 231.077Z" fill="#FB344F"/>
<path fill-rule="evenodd" clip-rule="evenodd" d="M249.165 142.688C252.075 140.111 255.824 138.35 260 137.768V133.846V101.282C260 87.2952 251.439 74.5106 237.889 68.2558L188.944 45.6672C183.313 43.0678 176.686 43.0678 171.056 45.6672L122.111 68.2558C108.561 74.5106 100 87.2952 100 101.282V137.768C104.176 138.35 107.925 140.111 110.835 142.688V142.288C110.835 133.137 115.254 124.462 122.889 118.625C133.294 110.669 147.877 109.309 159.796 115.181C172.422 121.402 187.578 121.402 200.204 115.181C212.123 109.309 226.706 110.669 237.111 118.625C244.746 124.462 249.165 133.137 249.165 142.288V142.688Z" fill="#00004D"/>
<path fill-rule="evenodd" clip-rule="evenodd" d="M205 214.499C205 228.307 193.807 239.499 180 239.499C166.193 239.499 155 228.307 155 214.499H205Z" fill="#AE1328"/>
<path fill-rule="evenodd" clip-rule="evenodd" d="M193.991 235.22C190.384 231.686 185.449 229.499 180 229.499C174.551 229.499 169.616 231.686 166.009 235.22C170.002 237.922 174.816 239.499 180 239.499C185.183 239.499 189.999 237.922 193.991 235.22Z" fill="#FB344F"/>
<path fill-rule="evenodd" clip-rule="evenodd" d="M195 222.499H165C162.238 222.499 160 220.261 160 217.499V214.499H200V217.499C200 220.261 197.762 222.499 195 222.499Z" fill="white"/>
<path d="M203.5 170C205.043 166.469 208.567 164 212.668 164C216.769 164 220.293 166.469 221.836 170" stroke="#00004D" stroke-width="2" stroke-linecap="round" stroke-linejoin="round"/>
<path fill-rule="evenodd" clip-rule="evenodd" d="M155 170C155 174.419 151.418 178 147 178C142.582 178 139 174.419 139 170C139 165.582 142.582 162 147 162C151.418 162 155 165.582 155 170Z" fill="#00004D"/>
</svg>
