<svg width="360" height="360" viewBox="0 0 360 360" fill="none" xmlns="http://www.w3.org/2000/svg">
<path fill-rule="evenodd" clip-rule="evenodd" d="M180 360C279.411 360 360 279.411 360 180C360 80.5887 279.411 0 180 0C80.5887 0 0 80.5887 0 180C0 279.411 80.5887 360 180 360Z" fill="#F5F5F8"/>
<mask id="mask0" mask-type="alpha" maskUnits="userSpaceOnUse" x="0" y="0" width="360" height="360">
<path fill-rule="evenodd" clip-rule="evenodd" d="M180 360C279.411 360 360 279.411 360 180C360 80.5887 279.411 0 180 0C80.5887 0 0 80.5887 0 180C0 279.411 80.5887 360 180 360Z" fill="white"/>
</mask>
<g mask="url(#mask0)">
<path fill-rule="evenodd" clip-rule="evenodd" d="M310.964 318.235C300.352 302.884 284.706 291.726 266.736 286.692L224.999 275V245.001C242.643 231.747 254.23 210.89 254.942 187.297C257.408 188.384 260.13 189 263 189C274.045 189 283 180.046 283 169C283 157.954 274.045 149 263 149C260.153 149 257.451 149.603 255 150.675V145C255 103.578 221.421 70.0003 180 70.0003H179.999C138.578 70.0003 105 103.578 105 145V150.675C102.548 149.603 99.8465 149 97.0005 149C85.9545 149 77.0005 157.954 77.0005 169C77.0005 180.046 85.9545 189 97.0005 189C99.8695 189 102.591 188.385 105.058 187.297C105.769 210.89 117.356 231.747 134.999 245.001V275L93.2635 286.692C75.2935 291.726 59.6485 302.884 49.0365 318.235L20.0005 360.24V390H340V360.24L310.964 318.235Z" fill="#D6A557"/>
<path fill-rule="evenodd" clip-rule="evenodd" d="M180 260C170.752 260 161.9 258.316 153.72 255.255C165.354 262.687 179.17 267 194 267C205.06 267 215.549 264.587 225 260.29V245.001C212.465 254.417 196.885 260 180 260Z" fill="#935F25"/>
<path d="M107.609 171.919C107.864 170.99 108.001 170.011 108.001 169.001C108.001 162.926 103.076 158.001 97.0012 158.001C95.4822 158.001 94.0352 158.309 92.7192 158.865" stroke="#00004D" stroke-width="2" stroke-linecap="round" stroke-linejoin="round"/>
<path d="M252.392 171.919C252.137 170.99 252.001 170.011 252.001 169.001C252.001 162.926 256.926 158.001 263.001 158.001C264.519 158.001 265.966 158.309 267.283 158.865" stroke="#00004D" stroke-width="2" stroke-linecap="round" stroke-linejoin="round"/>
<path fill-rule="evenodd" clip-rule="evenodd" d="M200 214.009C200 225.055 191.046 234.009 180 234.009C168.954 234.009 160 225.055 160 214.009H200Z" fill="white"/>
<path fill-rule="evenodd" clip-rule="evenodd" d="M221 172C221 176.418 217.418 180 213 180C208.582 180 205 176.418 205 172C205 167.582 208.582 164 213 164C217.418 164 221 167.582 221 172Z" fill="#00004D"/>
<path fill-rule="evenodd" clip-rule="evenodd" d="M155 172C155 176.418 151.418 180 147 180C142.582 180 139 176.418 139 172C139 167.582 142.582 164 147 164C151.418 164 155 167.582 155 172Z" fill="#00004D"/>
<path d="M180 164L190 198L176 200" stroke="#00004D" stroke-width="2" stroke-linecap="round" stroke-linejoin="round"/>
<path fill-rule="evenodd" clip-rule="evenodd" d="M260 149.249V145C260 129.654 255.671 115.322 248.18 103.145C241.237 91.8599 231.567 82.4439 220.095 75.7839C208.304 68.9379 194.615 64.9999 180 64.9999C165.384 64.9999 151.696 68.9379 139.905 75.7839C128.433 82.4439 118.763 91.8599 111.82 103.145C104.329 115.322 100 129.654 100 145V149.249C104.172 149.879 107.919 151.784 110.828 154.572C120.042 145.324 127.462 134.29 132.51 122.023C146.638 129.662 162.812 134 180 134C197.188 134 213.362 129.662 227.49 122.023C232.537 134.29 239.959 145.324 249.172 154.572C252.081 151.784 255.828 149.879 260 149.249Z" fill="#00004D"/>
<path fill-rule="evenodd" clip-rule="evenodd" d="M340 360.24L310.963 318.235C300.352 302.885 284.707 291.726 266.736 286.692L225 275C225 299.853 204.853 320 180 320C155.147 320 135 299.853 135 275L93.263 286.692C75.293 291.726 59.648 302.885 49.036 318.235L20 360.24V390H340V360.24Z" fill="#FFCA00"/>
</g>
<path fill-rule="evenodd" clip-rule="evenodd" d="M213 187.442C203.074 187.442 195 179.368 195 169.442C195 157.019 207.588 155.677 213 155.677C218.412 155.677 231 157.019 231 169.442C231 179.368 222.926 187.442 213 187.442ZM147 187.442C137.074 187.442 129 179.368 129 169.442C129 157.019 141.588 155.677 147 155.677C152.412 155.677 165 157.019 165 169.442C165 179.368 156.926 187.442 147 187.442ZM241 158.303H233.105L227.708 154.106C225.953 152.741 223.793 152 221.569 152H204.144C201.773 152 199.48 152.841 197.673 154.376L190 160.887L180.928 156.136C180.347 155.833 179.653 155.833 179.072 156.136L170 160.887L162.327 154.376C160.52 152.841 158.227 152 155.856 152H138.431C136.207 152 134.047 152.741 132.292 154.106L126.895 158.303H119C117.896 158.303 117 159.199 117 160.303V162.139C117 163.244 117.896 164.139 119 164.139H121C122.657 164.139 124 165.482 124 167.139V168.115C124 180.275 133.265 190.678 145.396 191.505C155.969 192.226 165.167 185.755 168.583 176.507L168.584 176.509L172.047 168.413C173.409 165.229 176.537 163.165 180 163.165C183.463 163.165 186.591 165.229 187.953 168.413L191.416 176.509L191.417 176.507C194.833 185.756 204.032 192.226 214.604 191.505C226.735 190.677 236 180.275 236 168.115V167.139C236 165.482 237.343 164.139 239 164.139H241C242.104 164.139 243 163.244 243 162.139V160.303C243 159.199 242.104 158.303 241 158.303Z" fill="#000066"/>
</svg>
