<svg width="360" height="360" viewBox="0 0 360 360" fill="none" xmlns="http://www.w3.org/2000/svg">
<path fill-rule="evenodd" clip-rule="evenodd" d="M180 360C279.411 360 360 279.411 360 180C360 80.5887 279.411 0 180 0C80.5887 0 0 80.5887 0 180C0 279.411 80.5887 360 180 360Z" fill="#F5F5F8"/>
<mask id="mask0" mask-type="alpha" maskUnits="userSpaceOnUse" x="0" y="0" width="360" height="360">
<path fill-rule="evenodd" clip-rule="evenodd" d="M180 360C279.411 360 360 279.411 360 180C360 80.5887 279.411 0 180 0C80.5887 0 0 80.5887 0 180C0 279.411 80.5887 360 180 360Z" fill="white"/>
</mask>
<g mask="url(#mask0)">
<path fill-rule="evenodd" clip-rule="evenodd" d="M310.964 318.235C300.352 302.884 284.706 291.726 266.736 286.692L224.999 275V245.001C242.643 231.747 254.23 210.89 254.942 187.297C257.408 188.384 260.13 189 263 189C274.045 189 283 180.046 283 169C283 157.954 274.045 149 263 149C260.153 149 257.451 149.603 255 150.675V145C255 103.578 221.421 70.0003 180 70.0003H179.999C138.578 70.0003 105 103.578 105 145V150.675C102.548 149.603 99.8465 149 97.0005 149C85.9545 149 77.0005 157.954 77.0005 169C77.0005 180.046 85.9545 189 97.0005 189C99.8695 189 102.591 188.385 105.058 187.297C105.769 210.89 117.356 231.747 134.999 245.001V275L93.2635 286.692C75.2935 291.726 59.6485 302.884 49.0365 318.235L20.0005 360.24V390H340V360.24L310.964 318.235Z" fill="#FFCF83"/>
<path fill-rule="evenodd" clip-rule="evenodd" d="M180 260C170.752 260 161.9 258.316 153.72 255.255C165.354 262.687 179.17 267 194 267C205.06 267 215.549 264.587 225 260.29V245.001C212.465 254.417 196.885 260 180 260Z" fill="#F7A74F"/>
<path d="M107.609 171.919C107.864 170.99 108.001 170.011 108.001 169.001C108.001 162.926 103.076 158.001 97.0012 158.001C95.4822 158.001 94.0352 158.309 92.7192 158.865" stroke="#00004D" stroke-width="2" stroke-linecap="round" stroke-linejoin="round"/>
<path d="M252.392 171.919C252.137 170.99 252.001 170.011 252.001 169.001C252.001 162.926 256.926 158.001 263.001 158.001C264.519 158.001 265.966 158.309 267.283 158.865" stroke="#00004D" stroke-width="2" stroke-linecap="round" stroke-linejoin="round"/>
<path d="M180 164L190 198L176 200" stroke="#00004D" stroke-width="2" stroke-linecap="round" stroke-linejoin="round"/>
<path fill-rule="evenodd" clip-rule="evenodd" d="M260 149.249V145C260 129.654 255.671 115.322 248.18 103.145C241.237 91.8599 231.567 82.4439 220.095 75.7839C208.304 68.9379 194.615 64.9999 180 64.9999C165.384 64.9999 151.696 68.9379 139.905 75.7839C128.433 82.4439 118.763 91.8599 111.82 103.145C104.329 115.322 100 129.654 100 145V149.249C104.172 149.879 107.919 151.784 110.828 154.572C120.042 145.324 127.462 134.29 132.51 122.023C146.638 129.662 162.812 134 180 134C197.188 134 213.362 129.662 227.49 122.023C232.537 134.29 239.959 145.324 249.172 154.572C252.081 151.784 255.828 149.879 260 149.249Z" fill="#00004D"/>
<path fill-rule="evenodd" clip-rule="evenodd" d="M340 360.24L310.963 318.235C300.352 302.885 284.707 291.726 266.736 286.692L225 275C225 299.853 204.853 320 180 320C155.147 320 135 299.853 135 275L93.263 286.692C75.293 291.726 59.648 302.885 49.036 318.235L20 360.24V390H340V360.24Z" fill="#9292B3"/>
</g>
<path d="M221.836 169C220.293 172.532 216.769 175 212.668 175C208.567 175 205.043 172.532 203.5 169" stroke="#00004D" stroke-width="2" stroke-linecap="round" stroke-linejoin="round"/>
<path d="M155.836 169C154.293 172.532 150.769 175 146.668 175C142.567 175 139.043 172.532 137.5 169" stroke="#00004D" stroke-width="2" stroke-linecap="round" stroke-linejoin="round"/>
<path d="M194.559 223.5C191.901 227.703 187.212 230.493 181.872 230.493C176.699 230.493 172.137 227.874 169.44 223.889" stroke="#00004D" stroke-width="2" stroke-linecap="round" stroke-linejoin="round"/>
<path fill-rule="evenodd" clip-rule="evenodd" d="M257.556 138.249L244.426 67.6685C243.602 63.2377 239.441 59.9995 234.571 59.9995H125.43C120.56 59.9995 116.398 63.2377 115.574 67.6685L102.445 138.249C106.951 139.425 110.809 142.011 113.418 145.472L121.002 116.543C123.174 108.259 131.207 102.423 140.442 102.423H219.559C228.793 102.423 236.827 108.259 238.998 116.543L246.582 145.472C249.192 142.011 253.05 139.425 257.556 138.249" fill="#00004D"/>
</svg>
